<svg width="20" height="23" viewBox="0 0 20 23" fill="none" xmlns="http://www.w3.org/2000/svg">
<path id="Logo" d="M19.3687 17.924C19.0209 18.7275 18.6091 19.4672 18.1321 20.1472C17.4819 21.0743 16.9495 21.716 16.5392 22.0724C15.9032 22.6573 15.2217 22.9568 14.492 22.9739C13.9681 22.9739 13.3363 22.8248 12.6009 22.5224C11.8631 22.2214 11.1851 22.0724 10.5651 22.0724C9.91484 22.0724 9.21748 22.2214 8.47157 22.5224C7.72451 22.8248 7.1227 22.9824 6.66257 22.998C5.9628 23.0278 5.26529 22.7197 4.56907 22.0724C4.1247 21.6848 3.56888 21.0204 2.90304 20.0791C2.18864 19.0739 1.60131 17.9084 1.14118 16.5795C0.648397 15.1442 0.401367 13.7543 0.401367 12.4087C0.401367 10.8673 0.734431 9.53789 1.40155 8.42385C1.92585 7.529 2.62336 6.82312 3.49633 6.30493C4.36931 5.78674 5.31257 5.52267 6.32837 5.50578C6.88419 5.50578 7.61307 5.6777 8.51884 6.01559C9.42206 6.35462 10.002 6.52655 10.2563 6.52655C10.4464 6.52655 11.0906 6.32552 12.1828 5.92473C13.2157 5.55305 14.0874 5.39916 14.8015 5.45978C16.7365 5.61595 18.1903 6.37876 19.1572 7.75303C17.4265 8.80163 16.5704 10.2703 16.5875 12.1544C16.6031 13.622 17.1355 14.8432 18.1818 15.8129C18.656 16.2629 19.1855 16.6107 19.7747 16.8578C19.647 17.2283 19.5121 17.5832 19.3687 17.924ZM14.9307 0.460131C14.9307 1.61039 14.5104 2.68439 13.6728 3.67847C12.662 4.86023 11.4393 5.54311 10.1135 5.43536C10.0966 5.29736 10.0868 5.15213 10.0868 4.99951C10.0868 3.89526 10.5675 2.71349 11.4212 1.74724C11.8474 1.25801 12.3894 0.851218 13.0467 0.526714C13.7026 0.207053 14.323 0.0302728 14.9065 0C14.9236 0.153772 14.9307 0.307554 14.9307 0.460116V0.460131Z" fill="black"/>
</svg>
