<svg width="26" height="26" viewBox="0 0 26 26" fill="none" xmlns="http://www.w3.org/2000/svg">
<path d="M3.88056 14.9544C4.78591 10.6069 8.57059 7.51782 12.8279 7.51782C17.0838 7.51782 20.8685 10.6069 21.7752 14.9544C21.8111 15.127 21.914 15.2781 22.0614 15.3747C22.2088 15.4713 22.3885 15.5054 22.561 15.4695C22.7336 15.4336 22.8847 15.3306 22.9813 15.1832C23.0779 15.0359 23.112 14.8561 23.0761 14.6836C22.0446 9.73872 17.7303 6.19033 12.8279 6.19033C7.92543 6.19033 3.61108 9.73872 2.57962 14.6836C2.54371 14.8561 2.5778 15.0359 2.67439 15.1832C2.77099 15.3306 2.92217 15.4336 3.09469 15.4695C3.2672 15.5054 3.44692 15.4713 3.5943 15.3747C3.74168 15.2781 3.84465 15.127 3.88056 14.9544ZM12.8146 10.1728C14.0468 10.1728 15.2286 10.6623 16.1 11.5337C16.9713 12.405 17.4608 13.5868 17.4608 14.819C17.4608 16.0513 16.9713 17.2331 16.1 18.1044C15.2286 18.9757 14.0468 19.4653 12.8146 19.4653C11.5823 19.4653 10.4005 18.9757 9.52921 18.1044C8.65788 17.2331 8.16836 16.0513 8.16836 14.819C8.16836 13.5868 8.65788 12.405 9.52921 11.5337C10.4005 10.6623 11.5823 10.1728 12.8146 10.1728Z" fill="#949BA5"/>
</svg>
