<svg width="24" height="23" viewBox="0 0 24 23" fill="none" xmlns="http://www.w3.org/2000/svg">
<g id="Logo">
<path id="Vector" d="M23.4014 11.5001C23.4014 5.14878 18.2526 5.53131e-05 11.9014 5.53131e-05C5.55009 5.53131e-05 0.401367 5.14878 0.401367 11.5001C0.401367 17.24 4.60675 21.9976 10.1045 22.8604V14.8243H7.18457V11.5001H10.1045V8.96646C10.1045 6.08427 11.8214 4.49224 14.4482 4.49224C15.7064 4.49224 17.0225 4.71685 17.0225 4.71685V7.54693H15.5723C14.1438 7.54693 13.6982 8.4334 13.6982 9.34284V11.5001H16.8877L16.3778 14.8243H13.6982V22.8604C19.196 21.9976 23.4014 17.24 23.4014 11.5001Z" fill="#1877F2"/>
</g>
</svg>
