<svg width="23" height="23" viewBox="0 0 23 23" fill="none" xmlns="http://www.w3.org/2000/svg">
<g id="Logo Google">
<path id="Vector" fill-rule="evenodd" clip-rule="evenodd" d="M22.54 11.7614C22.54 10.9459 22.4668 10.1618 22.3309 9.40909H11.5V13.8575H17.6891C17.4225 15.295 16.6123 16.513 15.3943 17.3284V20.2139H19.1109C21.2855 18.2118 22.54 15.2636 22.54 11.7614Z" fill="#4285F4"/>
<path id="Vector_2" fill-rule="evenodd" clip-rule="evenodd" d="M11.4999 22.9998C14.6049 22.9998 17.2081 21.9701 19.1108 20.2137L15.3943 17.3282C14.3645 18.0182 13.0472 18.426 11.4999 18.426C8.50471 18.426 5.96948 16.403 5.06516 13.6848H1.22311V16.6644C3.11539 20.4228 7.00448 22.9998 11.4999 22.9998Z" fill="#34A853"/>
<path id="Vector_3" fill-rule="evenodd" clip-rule="evenodd" d="M5.06523 13.6851C4.83523 12.9951 4.70455 12.258 4.70455 11.5001C4.70455 10.7421 4.83523 10.0051 5.06523 9.31506V6.33551H1.22318C0.444318 7.88801 0 9.64437 0 11.5001C0 13.3557 0.444318 15.1121 1.22318 16.6646L5.06523 13.6851Z" fill="#FBBC05"/>
<path id="Vector_4" fill-rule="evenodd" clip-rule="evenodd" d="M11.4999 4.57386C13.1883 4.57386 14.7043 5.15409 15.8961 6.29364L19.1945 2.99523C17.2029 1.13955 14.5997 0 11.4999 0C7.00448 0 3.11539 2.57705 1.22311 6.33545L5.06516 9.315C5.96948 6.59682 8.50471 4.57386 11.4999 4.57386Z" fill="#EA4335"/>
</g>
</svg>
