<svg width="21" height="16" viewBox="0 0 21 16" fill="none" xmlns="http://www.w3.org/2000/svg">
<g id="Frame" clip-path="url(#clip0_2_897)">
<g id="Group">
<g id="Group_2">
<g id="Group_3">
<path id="Vector" d="M2.37633 8.16138H2.76875H3.3374C3.61355 8.16138 3.81158 8.2038 3.92967 8.2868C4.04776 8.3698 4.10589 8.50813 4.10589 8.69994C4.10589 8.91389 4.05139 9.0596 3.94057 9.14075C3.82974 9.2219 3.58811 9.26248 3.21386 9.26248H1.29172H0.930184C0.744874 9.26248 0.6068 9.21637 0.514145 9.12231C0.42149 9.02824 0.376071 8.88807 0.376071 8.69994C0.376071 8.49153 0.428757 8.34951 0.534129 8.27389C0.639502 8.19827 0.842979 8.16138 1.14638 8.16138H1.29172V1.12507H1.09914C0.66857 1.12507 0.377887 1.08265 0.225279 0.999654C0.0763042 0.916657 0 0.770951 0 0.562536C0 0.368876 0.0654036 0.230548 0.196211 0.143862C0.327018 0.0571758 0.537763 0.014755 0.830262 0.014755C1.03556 0.00553314 1.18998 0 1.29172 0H2.01479C2.25097 0 2.4163 0.0276657 2.51077 0.0811527C2.60524 0.136484 2.71788 0.274813 2.84506 0.499827L6.72203 7.29452V1.12507H6.42227H5.87542C5.59927 1.12507 5.39761 1.07896 5.27226 0.988588C5.1469 0.898213 5.08331 0.756196 5.08331 0.562536C5.08331 0.348588 5.13781 0.202882 5.245 0.121729C5.35401 0.0405764 5.57929 0 5.92266 0H7.76123H8.13003C8.31534 0 8.4516 0.0461095 8.54243 0.140173C8.63146 0.234236 8.67688 0.374409 8.67688 0.562536C8.67688 0.770951 8.62237 0.916657 8.51155 0.999654C8.40073 1.08265 8.20088 1.12507 7.90838 1.12507H7.81573V8.98951C7.81573 9.14075 7.78121 9.24403 7.71217 9.30121C7.64314 9.35839 7.48326 9.3879 7.23073 9.3879C6.98002 9.3879 6.82377 9.37314 6.76564 9.34548C6.7075 9.31597 6.60758 9.18317 6.4695 8.9434L2.37633 1.77983V8.16138Z" fill="url(#paint0_linear_2_897)"/>
</g>
<g id="Group_4">
<path id="Vector_2" d="M9.85959 8.54318H11.7944C11.9507 8.54318 12.067 8.57638 12.1414 8.64462C12.2159 8.71286 12.2523 8.81984 12.2523 8.96554C12.2523 9.13338 12.2177 9.24773 12.1469 9.31228C12.076 9.37499 11.9471 9.40635 11.7581 9.40635H7.08539C6.92369 9.40635 6.80379 9.36946 6.72385 9.29569C6.64391 9.22191 6.60394 9.11125 6.60394 8.96554C6.60394 8.82352 6.64573 8.71655 6.73112 8.64646C6.81469 8.57638 6.94186 8.54318 7.11082 8.54318H8.94939V4.6128H7.76849C7.60316 4.6128 7.47781 4.57592 7.3906 4.5003C7.3034 4.42468 7.2598 4.3177 7.2598 4.17569C7.2598 4.03367 7.29976 3.92669 7.3797 3.85661C7.45964 3.78652 7.58136 3.74963 7.74124 3.74963H9.50895C9.61796 3.74963 9.70335 3.77177 9.76512 3.81788C9.82689 3.86214 9.85777 3.92485 9.85777 4.00231V8.54318H9.85959ZM8.74409 1.98641C8.74409 1.5456 8.78406 1.26894 8.86218 1.15459C8.9403 1.04024 9.10926 0.983063 9.36543 0.983063C9.61432 0.983063 9.77965 1.03102 9.85959 1.12692C9.93953 1.22283 9.97949 1.44969 9.97949 1.80935C9.97949 2.15978 9.94316 2.37741 9.86867 2.46226C9.79418 2.54525 9.62704 2.58767 9.36543 2.58767C9.10745 2.58767 8.9403 2.54894 8.86218 2.47148C8.78225 2.39217 8.74409 2.23171 8.74409 1.98641Z" fill="url(#paint1_linear_2_897)"/>
<path id="Vector_3" d="M11.1749 8.54318V4.61833H11.0605C10.7879 4.61833 10.599 4.58514 10.4973 4.52058C10.3955 4.45603 10.3428 4.34168 10.3428 4.17753C10.3428 4.02629 10.3846 3.91747 10.47 3.84923C10.5536 3.78099 10.6917 3.74779 10.8806 3.74779H11.164H11.7436C11.8526 3.74779 11.9361 3.76992 11.9961 3.81603C12.056 3.86029 12.0869 3.923 12.0869 4.00047V4.4173C12.3812 4.14064 12.6701 3.93407 12.959 3.80127C13.246 3.66848 13.544 3.60208 13.8546 3.60208C14.4614 3.60208 14.9393 3.7939 15.2863 4.17753C15.6333 4.56116 15.8077 5.09234 15.8077 5.76923V8.54318H16.0929C16.2946 8.54318 16.4417 8.57638 16.5307 8.64462C16.6198 8.71286 16.6652 8.81983 16.6652 8.96554C16.6652 9.12416 16.6179 9.23851 16.5235 9.30491C16.429 9.37315 16.26 9.40635 16.0184 9.40635H14.6795C14.4215 9.40635 14.2561 9.37499 14.1835 9.31413C14.1108 9.25326 14.0745 9.13707 14.0745 8.96554C14.0745 8.80692 14.1163 8.69626 14.2016 8.6354C14.287 8.57453 14.4469 8.54318 14.6813 8.54318H14.8938V5.99609C14.8938 5.51839 14.7866 5.15505 14.5741 4.90421C14.3597 4.65338 14.0509 4.52796 13.6439 4.52796C13.2333 4.52796 12.87 4.66813 12.5557 4.95032C12.2414 5.23251 12.0851 5.5811 12.0851 5.99793V8.54502H12.2959C12.5375 8.54502 12.6992 8.57638 12.7846 8.63724C12.8681 8.6981 12.9117 8.80877 12.9117 8.96738C12.9117 9.13891 12.8754 9.25511 12.8027 9.31597C12.7301 9.37684 12.5538 9.40819 12.2722 9.40819H11.1749H10.8497C10.6844 9.40819 10.5608 9.37315 10.4791 9.30122C10.3973 9.22929 10.3556 9.11862 10.3556 8.96738C10.3556 8.80508 10.4028 8.69257 10.4973 8.63355C10.5917 8.57453 10.7752 8.54502 11.0496 8.54502H11.1749V8.54318Z" fill="url(#paint2_linear_2_897)"/>
<path id="Vector_4" d="M15.9457 6.84818C15.9784 7.43838 16.1746 7.89394 16.5344 8.21486C16.8941 8.53579 17.3864 8.69625 18.0096 8.69625C18.4801 8.69625 18.9925 8.56899 19.5466 8.31446C20.1007 8.05994 20.4368 7.93267 20.5531 7.93267C20.673 7.93267 20.7747 7.97141 20.8546 8.04887C20.9346 8.12633 20.9745 8.22224 20.9745 8.33659C20.9745 8.45463 20.9328 8.56345 20.8474 8.66121C20.7638 8.75896 20.6275 8.85487 20.444 8.94708C20.0425 9.14628 19.6265 9.29752 19.1996 9.40265C18.7708 9.50777 18.3457 9.56126 17.9242 9.56126C17.0067 9.56126 16.2746 9.29383 15.7223 8.75711C15.1718 8.21855 14.8975 7.50662 14.8975 6.62132C14.8975 5.71942 15.1881 4.98904 15.7713 4.4302C16.3545 3.87135 17.1139 3.591 18.0514 3.591C18.8998 3.591 19.6029 3.85291 20.1625 4.37486C20.722 4.89682 21 5.52945 21 6.27273C21 6.50144 20.9527 6.65452 20.8583 6.73198C20.7638 6.80945 20.5076 6.84818 20.0898 6.84818H19.9989H15.9457ZM15.9766 6.04587H19.9027C19.8427 5.5608 19.6429 5.16979 19.3031 4.87285C18.9634 4.57775 18.5455 4.42835 18.0514 4.42835C17.5172 4.42835 17.0667 4.57037 16.6997 4.85625C16.3345 5.14397 16.0929 5.54051 15.9766 6.04587Z" fill="url(#paint3_linear_2_897)"/>
</g>
</g>
<g id="Group_5">
<path id="Vector_5" d="M8.94215 9.4432H7.31433C7.01274 9.4432 6.81835 9.41184 6.72933 9.34913C6.64031 9.28643 6.59671 9.17023 6.59671 9.00239C6.59671 8.85115 6.63122 8.74049 6.70208 8.66856C6.77293 8.59663 6.88557 8.56158 7.04363 8.56158H7.31433H10.6735H10.9551C11.1005 8.56158 11.2077 8.59847 11.2785 8.67225C11.3494 8.74602 11.3839 8.85669 11.3839 9.00239C11.3839 9.17023 11.3403 9.28458 11.2513 9.34913C11.1622 9.41184 10.9697 9.4432 10.6717 9.4432H9.89413V13.3551C9.89413 14.2902 9.69974 14.9634 9.30914 15.3784C8.91853 15.7934 8.28993 16 7.42152 16C7.04363 16 6.68391 15.9557 6.34236 15.869C6.00081 15.7805 5.66107 15.6459 5.32315 15.4614C5.18144 15.3839 5.09061 15.3083 5.04519 15.2327C5.00158 15.1571 4.97797 15.0188 4.97797 14.8196V13.381C4.97797 13.0951 5.00703 12.9162 5.06517 12.8461C5.12331 12.7741 5.22505 12.7391 5.37039 12.7391C5.46668 12.7391 5.54843 12.7594 5.61747 12.7981C5.68651 12.8369 5.73556 12.8922 5.76826 12.966C5.78461 13.0065 5.79551 13.0563 5.80459 13.1135C5.81186 13.1707 5.81731 13.2721 5.81731 13.4197V13.4805C5.81731 13.6152 5.82276 13.7388 5.83548 13.8513C5.8482 13.9638 5.86637 14.0744 5.88998 14.1851C5.979 14.5079 6.15341 14.7624 6.41503 14.9468C6.67664 15.1331 6.99094 15.2253 7.36156 15.2253C7.91568 15.2253 8.319 15.0667 8.5679 14.7513C8.81679 14.4359 8.94215 13.9195 8.94215 13.2057V9.4432Z" fill="url(#paint4_linear_2_897)"/>
<path id="Vector_6" d="M15.5516 13.001C15.5516 13.8752 15.2572 14.589 14.6704 15.1442C14.0836 15.6993 13.3224 15.976 12.3849 15.976C11.4529 15.976 10.6917 15.6993 10.1049 15.1442C9.51807 14.589 9.22375 13.8752 9.22375 13.001C9.22375 12.1286 9.51625 11.4148 10.1049 10.8615C10.6917 10.3082 11.4511 10.0316 12.3849 10.0316C13.3169 10.0316 14.0782 10.3101 14.6668 10.8634C15.2572 11.4185 15.5516 12.1305 15.5516 13.001ZM12.3867 15.1128C13.0063 15.1128 13.5131 14.9136 13.9092 14.5171C14.3052 14.1205 14.5033 13.6133 14.5033 12.9973C14.5033 12.3813 14.3034 11.8741 13.9056 11.472C13.5077 11.0699 13.0008 10.8707 12.3867 10.8707C11.7709 10.8707 11.2658 11.0718 10.8697 11.472C10.4737 11.8741 10.2757 12.3813 10.2757 12.9973C10.2757 13.617 10.4719 14.1242 10.8661 14.5189C11.2603 14.9155 11.7672 15.1128 12.3867 15.1128Z" fill="url(#paint5_linear_2_897)"/>
<path id="Vector_7" d="M15.9367 13.2629C15.9694 13.8531 16.1656 14.3087 16.5253 14.6296C16.885 14.9505 17.3774 15.111 18.0005 15.111C18.4711 15.111 18.9834 14.9837 19.5375 14.7292C20.0916 14.4747 20.4277 14.3474 20.544 14.3474C20.6639 14.3474 20.7657 14.3861 20.8456 14.4636C20.9255 14.5411 20.9655 14.637 20.9655 14.7513C20.9655 14.8694 20.9237 14.9782 20.8383 15.0759C20.7548 15.1737 20.6185 15.2696 20.435 15.3618C20.0335 15.561 19.6175 15.7122 19.1905 15.8174C18.7618 15.9225 18.3366 15.976 17.9151 15.976C16.9977 15.976 16.2655 15.7085 15.7132 15.1718C15.1627 14.6351 14.8866 13.9232 14.8866 13.0379C14.8866 12.136 15.1773 11.4056 15.7605 10.8468C16.3436 10.2879 17.1031 10.0076 18.0405 10.0076C18.8889 10.0076 19.592 10.2695 20.1516 10.7914C20.7111 11.3134 20.9891 11.946 20.9891 12.6893C20.9891 12.918 20.9419 13.0711 20.8474 13.1485C20.7529 13.226 20.4968 13.2647 20.0789 13.2647H19.9881H15.9367V13.2629ZM15.9658 12.4624H19.8918C19.8318 11.9774 19.632 11.5864 19.2923 11.2894C18.9525 10.9943 18.5347 10.8449 18.0405 10.8449C17.5064 10.8449 17.0558 10.9888 16.6888 11.2728C16.3237 11.5605 16.0838 11.9552 15.9658 12.4624Z" fill="url(#paint6_linear_2_897)"/>
</g>
</g>
</g>
<defs>
<linearGradient id="paint0_linear_2_897" x1="0" y1="4.69342" x2="8.67707" y2="4.69342" gradientUnits="userSpaceOnUse">
<stop stop-color="#4D4D4D"/>
<stop offset="1" stop-color="#1A1A1A"/>
</linearGradient>
<linearGradient id="paint1_linear_2_897" x1="6.60298" y1="5.19472" x2="12.2534" y2="5.19472" gradientUnits="userSpaceOnUse">
<stop stop-color="#4D4D4D"/>
<stop offset="1" stop-color="#1A1A1A"/>
</linearGradient>
<linearGradient id="paint2_linear_2_897" x1="10.3421" y1="6.50481" x2="16.6619" y2="6.50481" gradientUnits="userSpaceOnUse">
<stop stop-color="#4D4D4D"/>
<stop offset="1" stop-color="#1A1A1A"/>
</linearGradient>
<linearGradient id="paint3_linear_2_897" x1="14.8966" y1="6.57521" x2="20.9993" y2="6.57521" gradientUnits="userSpaceOnUse">
<stop stop-color="#4D4D4D"/>
<stop offset="1" stop-color="#1A1A1A"/>
</linearGradient>
<linearGradient id="paint4_linear_2_897" x1="4.97983" y1="12.281" x2="11.384" y2="12.281" gradientUnits="userSpaceOnUse">
<stop stop-color="#4D4D4D"/>
<stop offset="1" stop-color="#1A1A1A"/>
</linearGradient>
<linearGradient id="paint5_linear_2_897" x1="9.2266" y1="13.0034" x2="15.5523" y2="13.0034" gradientUnits="userSpaceOnUse">
<stop stop-color="#4D4D4D"/>
<stop offset="1" stop-color="#1A1A1A"/>
</linearGradient>
<linearGradient id="paint6_linear_2_897" x1="14.8871" y1="12.9912" x2="20.9897" y2="12.9912" gradientUnits="userSpaceOnUse">
<stop stop-color="#4D4D4D"/>
<stop offset="1" stop-color="#1A1A1A"/>
</linearGradient>
<clipPath id="clip0_2_897">
<rect width="21" height="16" fill="white"/>
</clipPath>
</defs>
</svg>
